<svg id="Layer_1" data-name="Layer 1" xmlns="http://www.w3.org/2000/svg" viewBox="0 0 120.16 37.18"><defs><style>.cls-1{fill:#ffa168;}</style></defs><path class="cls-1" d="M81.76,15.77a14.3,14.3,0,0,1,1.47-1.25,9.57,9.57,0,0,1,1.62-1,8.33,8.33,0,0,1,1.84-.64,9.8,9.8,0,0,1,2.16-.23,8.27,8.27,0,0,1,3.39.66,6.89,6.89,0,0,1,2.49,1.85A7.84,7.84,0,0,1,96.26,18a12.09,12.09,0,0,1,.51,3.6V36.52H90.51V21.6a4.56,4.56,0,0,0-.91-3,3.33,3.33,0,0,0-2.69-1.08,5.54,5.54,0,0,0-2.48.57,8.56,8.56,0,0,0-2.21,1.59V36.52H75.93V13h3.88a1.52,1.52,0,0,1,1.57,1.09Z"/><path class="cls-1" d="M101.23,16.34a14.27,14.27,0,0,1,4.58-2.83,15.47,15.47,0,0,1,5.42-.93,9.64,9.64,0,0,1,3.75.69,8.06,8.06,0,0,1,2.8,1.93,8.51,8.51,0,0,1,1.76,2.94,10.89,10.89,0,0,1,.62,3.73V36.81h-2.87a2.92,2.92,0,0,1-1.36-.25,1.88,1.88,0,0,1-.76-1.06l-.5-1.52c-.59.52-1.17,1-1.72,1.38a10,10,0,0,1-1.72,1,8.44,8.44,0,0,1-1.9.61,11.24,11.24,0,0,1-2.27.21,9.28,9.28,0,0,1-2.82-.41,6.17,6.17,0,0,1-2.2-1.24,5.35,5.35,0,0,1-1.42-2,7.23,7.23,0,0,1-.5-2.81,5.82,5.82,0,0,1,.66-2.63A6.5,6.5,0,0,1,103,25.66a14.43,14.43,0,0,1,4.29-1.77,29.87,29.87,0,0,1,6.7-.8V21.87a4.85,4.85,0,0,0-.93-3.28,3.41,3.41,0,0,0-2.69-1.05,6.37,6.37,0,0,0-2.16.31,11,11,0,0,0-1.52.67l-1.22.67a2.74,2.74,0,0,1-1.32.31,1.74,1.74,0,0,1-1.1-.34,2.93,2.93,0,0,1-.74-.79ZM114,26.88a28.1,28.1,0,0,0-3.82.4,9,9,0,0,0-2.43.75,3.2,3.2,0,0,0-1.27,1,2.34,2.34,0,0,0-.38,1.28,2.31,2.31,0,0,0,.76,2,3.5,3.5,0,0,0,2.13.57,6,6,0,0,0,2.72-.56A8.28,8.28,0,0,0,114,30.56Z"/><path class="cls-1" d="M66.05,25.87a14.47,14.47,0,0,0,4.28-1.77,6.46,6.46,0,0,0,2.27-2.39,5.79,5.79,0,0,0,.66-2.63,7.22,7.22,0,0,0-.51-2.81,5.49,5.49,0,0,0-1.41-2A6.15,6.15,0,0,0,69.14,13a9.08,9.08,0,0,0-2.83-.42,12.78,12.78,0,0,0-2.26.21,13.93,13.93,0,0,0-2.14.53,14.31,14.31,0,0,0-2.57,1.34A13.84,13.84,0,0,0,53.22,26.4v1.49a11,11,0,0,0,.61,3.74,8.42,8.42,0,0,0,1.77,2.93,8.06,8.06,0,0,0,2.8,1.93,9.64,9.64,0,0,0,3.75.69,15.51,15.51,0,0,0,5.42-.93,14.09,14.09,0,0,0,4.57-2.82L71,31.4a3.08,3.08,0,0,0-.73-.8,1.76,1.76,0,0,0-1.11-.33,2.68,2.68,0,0,0-1.32.31l-1.22.66a9.74,9.74,0,0,1-1.51.67,6.43,6.43,0,0,1-2.17.31,3.4,3.4,0,0,1-2.68-1,4.83,4.83,0,0,1-.94-3.28V26.67A29.4,29.4,0,0,0,66.05,25.87ZM59.34,21a3.86,3.86,0,0,1,1.85-3.34l.44-.25a6.23,6.23,0,0,1,2.72-.56h.39a3.11,3.11,0,0,1,1.74.57,2.28,2.28,0,0,1,.77,1.95,2.29,2.29,0,0,1-.38,1.28,3.08,3.08,0,0,1-1.28,1.05,8.78,8.78,0,0,1-2.42.75c-1,.19-3.83.41-3.83.41Z"/><path class="cls-1" d="M49.93,2.91V36.52H43.69V0H48a1.71,1.71,0,0,1,.9.21,1.44,1.44,0,0,1,.69.81l.3,1.19A2.74,2.74,0,0,1,49.93,2.91Z"/><path class="cls-1" d="M36.52,6.2H.2V0H39.66V4.23a1.72,1.72,0,0,1-.22.9,1.55,1.55,0,0,1-.88.68l-1.28.3A3.29,3.29,0,0,1,36.52,6.2Z"/><path class="cls-1" d="M36.32,30.32H0v6.2H39.47V32.28a1.66,1.66,0,0,0-.22-.89,1.5,1.5,0,0,0-.89-.68l-1.28-.3A3.22,3.22,0,0,0,36.32,30.32Z"/><path class="cls-1" d="M39.21,20.88H0v-6.2H39.21Z"/></svg>