<svg id="e" xmlns="http://www.w3.org/2000/svg" viewBox="0 0 102.02 102.02"><defs><style>.cls-1{fill:none;stroke-width:4px;}.cls-1,.cls-2{stroke:#a7a9ac;stroke-miterlimit:10;}.cls-2{fill:#fff;stroke-width:2px;}.cls-3{fill:#db5528;}</style></defs><rect class="cls-1" x="8.13" y="8.13" width="85.76" height="85.76"/><rect class="cls-2" x="1.17" y="1.17" width="13.91" height="13.91" rx="3.43"/><rect class="cls-2" x="44.04" y="1.16" width="13.94" height="13.94" rx="3.83"/><rect class="cls-2" x="86.76" y="1" width="14.26" height="14.26" rx="3.82"/><rect class="cls-2" x="86.76" y="43.86" width="14.26" height="14.26" rx="3.82"/><rect class="cls-2" x="86.76" y="86.76" width="14.26" height="14.26" rx="3.82"/><rect class="cls-2" x="44.18" y="86.76" width="14.26" height="14.26" rx="3.82"/><rect class="cls-2" x="1" y="86.76" width="14.26" height="14.26" rx="3.82"/><rect class="cls-2" x="1" y="43.94" width="14.26" height="14.26" rx="3.82"/><path class="cls-3" d="M66.83,54.81H38.05a19.45,19.45,0,0,0,2,8.83A13.5,13.5,0,0,0,52.5,71.35a17.8,17.8,0,0,0,4.82-.62,15.75,15.75,0,0,0,4.23-1.94A32.24,32.24,0,0,0,65.32,66c1.15-1,2.64-2.37,4.47-4.1a4.88,4.88,0,0,1,3.24-1,5.37,5.37,0,0,1,3.66,1.24,4.46,4.46,0,0,1,1.4,3.51,9.58,9.58,0,0,1-1.56,4.66,18.57,18.57,0,0,1-4.72,5.12,26.74,26.74,0,0,1-7.92,4.06,34,34,0,0,1-11,1.62q-14.18,0-22-8.08T23,51.09A36.68,36.68,0,0,1,25,39a26.59,26.59,0,0,1,5.66-9.56,24.53,24.53,0,0,1,9.16-6.12,32.86,32.86,0,0,1,12.07-2.13,28.55,28.55,0,0,1,14.79,3.64,24,24,0,0,1,9.24,9.4A24.72,24.72,0,0,1,79,46q0,5.55-3.18,7.19T66.83,54.81ZM38.05,46.45H64.73q-.54-7.55-4.07-11.28a12.17,12.17,0,0,0-9.3-3.75,11.77,11.77,0,0,0-9,3.8C40,37.75,38.56,41.5,38.05,46.45Z"/></svg>